REM DIRINDEX 1\2,1\3,1\4,1\5
REM DIRNAME cjc004,folder01,folder02,folder03,folder04
TITLE ""
FILE "1Q_t_1109-1118.mp3" MP3
  TRACK 01 AUDIO
    TITLE "3:cjc004_4231"
    INDEX 01 00:00:00
  TRACK 02 AUDIO
    TITLE "0:"
    INDEX 01 00:00:74
  TRACK 03 AUDIO
    TITLE "4:cjc004_4232"
    INDEX 01 00:01:28
  TRACK 04 AUDIO
    TITLE "0:"
    INDEX 01 00:02:38
  TRACK 05 AUDIO
    TITLE "5:cjc004_4233"
    INDEX 01 00:02:67
  TRACK 06 AUDIO
    TITLE "0:"
    INDEX 01 00:07:47
  TRACK 07 AUDIO
    TITLE "3:cjc004_4234"
    INDEX 01 00:08:24
  TRACK 08 AUDIO
    TITLE "0:"
    INDEX 01 00:09:26
  TRACK 09 AUDIO
    TITLE "4:cjc004_4235"
    INDEX 01 00:09:53
  TRACK 10 AUDIO
    TITLE "0:"
    INDEX 01 00:10:61
  TRACK 11 AUDIO
    TITLE "5:cjc004_4236"
    INDEX 01 00:11:13
  TRACK 12 AUDIO
    TITLE "0:"
    INDEX 01 00:15:28
  TRACK 13 AUDIO
    TITLE "3:cjc004_4237"
    INDEX 01 00:16:06
  TRACK 14 AUDIO
    TITLE "0:"
    INDEX 01 00:17:20
  TRACK 15 AUDIO
    TITLE "4:cjc004_4238"
    INDEX 01 00:17:49
  TRACK 16 AUDIO
    TITLE "0:"
    INDEX 01 00:18:52
  TRACK 17 AUDIO
    TITLE "5:cjc004_4239"
    INDEX 01 00:19:01
  TRACK 18 AUDIO
    TITLE "0:"
    INDEX 01 00:21:43
  TRACK 19 AUDIO
    TITLE "3:cjc004_4240"
    INDEX 01 00:22:19
  TRACK 20 AUDIO
    TITLE "0:"
    INDEX 01 00:23:50
  TRACK 21 AUDIO
    TITLE "4:cjc004_4241"
    INDEX 01 00:24:08
  TRACK 22 AUDIO
    TITLE "0:"
    INDEX 01 00:26:07
  TRACK 23 AUDIO
    TITLE "5:cjc004_4242"
    INDEX 01 00:26:34
  TRACK 24 AUDIO
    TITLE "0:"
    INDEX 01 00:30:73
  TRACK 25 AUDIO
    TITLE "3:cjc004_4243"
    INDEX 01 00:31:49
  TRACK 26 AUDIO
    TITLE "0:"
    INDEX 01 00:32:64
  TRACK 27 AUDIO
    TITLE "4:cjc004_4244"
    INDEX 01 00:33:17
  TRACK 28 AUDIO
    TITLE "0:"
    INDEX 01 00:34:34
  TRACK 29 AUDIO
    TITLE "5:cjc004_4245"
    INDEX 01 00:34:57
  TRACK 30 AUDIO
    TITLE "0:"
    INDEX 01 00:38:49
  TRACK 31 AUDIO
    TITLE "3:cjc004_4246"
    INDEX 01 00:39:29
  TRACK 32 AUDIO
    TITLE "0:"
    INDEX 01 00:40:46
  TRACK 33 AUDIO
    TITLE "4:cjc004_4247"
    INDEX 01 00:41:04
  TRACK 34 AUDIO
    TITLE "0:"
    INDEX 01 00:42:43
  TRACK 35 AUDIO
    TITLE "5:cjc004_4248"
    INDEX 01 00:42:68
  TRACK 36 AUDIO
    TITLE "0:"
    INDEX 01 00:47:01
  TRACK 37 AUDIO
    TITLE "3:cjc004_4249"
    INDEX 01 00:47:48
  TRACK 38 AUDIO
    TITLE "0:"
    INDEX 01 00:48:61
  TRACK 39 AUDIO
    TITLE "4:cjc004_4250"
    INDEX 01 00:49:08
  TRACK 40 AUDIO
    TITLE "0:"
    INDEX 01 00:50:19
  TRACK 41 AUDIO
    TITLE "5:cjc004_4251"
    INDEX 01 00:50:44
  TRACK 42 AUDIO
    TITLE "0:"
    INDEX 01 00:55:03
  TRACK 43 AUDIO
    TITLE "3:cjc004_4252"
    INDEX 01 00:55:53
  TRACK 44 AUDIO
    TITLE "0:"
    INDEX 01 00:57:13
  TRACK 45 AUDIO
    TITLE "4:cjc004_4253"
    INDEX 01 00:57:45
  TRACK 46 AUDIO
    TITLE "0:"
    INDEX 01 00:58:56
  TRACK 47 AUDIO
    TITLE "5:cjc004_4254"
    INDEX 01 00:59:02
  TRACK 48 AUDIO
    TITLE "0:"
    INDEX 01 01:04:07
  TRACK 49 AUDIO
    TITLE "3:cjc004_4255"
    INDEX 01 01:04:60
  TRACK 50 AUDIO
    TITLE "0:"
    INDEX 01 01:06:04
  TRACK 51 AUDIO
    TITLE "4:cjc004_4256"
    INDEX 01 01:06:38
  TRACK 52 AUDIO
    TITLE "0:"
    INDEX 01 01:07:43
  TRACK 53 AUDIO
    TITLE "5:cjc004_4257"
    INDEX 01 01:07:72
  TRACK 54 AUDIO
    TITLE "0:"
    INDEX 01 01:14:14
  TRACK 55 AUDIO
    TITLE "3:cjc004_4258"
    INDEX 01 01:14:63
  TRACK 56 AUDIO
    TITLE "0:"
    INDEX 01 01:15:70
  TRACK 57 AUDIO
    TITLE "4:cjc004_4259"
    INDEX 01 01:16:24
  TRACK 58 AUDIO
    TITLE "0:"
    INDEX 01 01:17:43
  TRACK 59 AUDIO
    TITLE "5:cjc004_4260"
    INDEX 01 01:17:71
  TRACK 60 AUDIO
    TITLE "0:"
    INDEX 01 01:23:34
